<svg width="20" height="20" viewBox="0 0 20 20" fill="none" xmlns="http://www.w3.org/2000/svg">
<path d="M14.4498 4.3789C14.2521 4.3789 14.0587 4.43535 13.8943 4.5411C13.7298 4.64685 13.6016 4.79715 13.526 4.97301C13.4503 5.14886 13.4305 5.34237 13.4691 5.52905C13.5076 5.71574 13.6029 5.88722 13.7427 6.02181C13.8826 6.15641 14.0608 6.24806 14.2547 6.2852C14.4487 6.32233 14.6498 6.30327 14.8325 6.23043C15.0152 6.15759 15.1714 6.03424 15.2813 5.87597C15.3912 5.71771 15.4498 5.53164 15.4498 5.3413C15.4498 5.08605 15.3445 4.84127 15.1569 4.66078C14.9694 4.4803 14.7151 4.3789 14.4498 4.3789ZM18.2832 6.31973C18.267 5.65431 18.1375 4.99596 17.8998 4.37088C17.6879 3.83606 17.3582 3.35177 16.9332 2.95135C16.5205 2.54027 16.0161 2.22489 15.4582 2.02906C14.8104 1.7934 14.1255 1.66593 13.4332 1.65212C12.5498 1.604 12.2665 1.604 9.99984 1.604C7.73317 1.604 7.44984 1.604 6.5665 1.65212C5.87413 1.66593 5.18929 1.7934 4.5415 2.02906C3.98457 2.22687 3.48062 2.54198 3.0665 2.95135C2.63936 3.34848 2.31165 3.8339 2.10817 4.37088C1.8633 4.99431 1.73085 5.6534 1.7165 6.31973C1.6665 7.16984 1.6665 7.44252 1.6665 9.62395C1.6665 11.8054 1.6665 12.0781 1.7165 12.9282C1.73085 13.5945 1.8633 14.2536 2.10817 14.877C2.31165 15.414 2.63936 15.8994 3.0665 16.2965C3.48062 16.7059 3.98457 17.021 4.5415 17.2188C5.18929 17.4545 5.87413 17.582 6.5665 17.5958C7.44984 17.6439 7.73317 17.6439 9.99984 17.6439C12.2665 17.6439 12.5498 17.6439 13.4332 17.5958C14.1255 17.582 14.8104 17.4545 15.4582 17.2188C16.0161 17.023 16.5205 16.7076 16.9332 16.2965C17.36 15.8976 17.6901 15.4129 17.8998 14.877C18.1375 14.2519 18.267 13.5936 18.2832 12.9282C18.2832 12.0781 18.3332 11.8054 18.3332 9.62395C18.3332 7.44252 18.3332 7.16984 18.2832 6.31973ZM16.7832 12.8319C16.7771 13.341 16.6813 13.8454 16.4998 14.3236C16.3668 14.6727 16.1531 14.988 15.8748 15.2459C15.6045 15.511 15.2775 15.7162 14.9165 15.8474C14.4196 16.0221 13.8955 16.1143 13.3665 16.1201C12.5332 16.1602 12.2248 16.1682 10.0332 16.1682C7.8415 16.1682 7.53317 16.1682 6.69984 16.1201C6.15058 16.13 5.60367 16.0486 5.08317 15.8795C4.73799 15.7416 4.42597 15.5369 4.1665 15.278C3.88991 15.0204 3.67887 14.7047 3.54984 14.3557C3.34638 13.8706 3.23354 13.3548 3.2165 12.8319C3.2165 12.0299 3.1665 11.7332 3.1665 9.62395C3.1665 7.5147 3.1665 7.21796 3.2165 6.41597C3.22024 5.89552 3.31896 5.37975 3.50817 4.89218C3.65488 4.55367 3.88006 4.25192 4.1665 4.00999C4.41968 3.73424 4.73258 3.51523 5.08317 3.36839C5.59113 3.19199 6.1265 3.09979 6.6665 3.09571C7.49984 3.09571 7.80817 3.04759 9.99984 3.04759C12.1915 3.04759 12.4998 3.04759 13.3332 3.09571C13.8621 3.10155 14.3863 3.19375 14.8832 3.36839C15.2619 3.50365 15.6017 3.72355 15.8748 4.00999C16.1479 4.25634 16.3613 4.55753 16.4998 4.89218C16.685 5.38054 16.7809 5.8961 16.7832 6.41597C16.8248 7.21796 16.8332 7.5147 16.8332 9.62395C16.8332 11.7332 16.8248 12.0299 16.7832 12.8319ZM9.99984 5.50972C9.15468 5.5113 8.32897 5.75394 7.62705 6.20698C6.92513 6.66002 6.37849 7.30313 6.0562 8.05505C5.73391 8.80696 5.65044 9.63395 5.81633 10.4315C5.98222 11.2291 6.39003 11.9614 6.98823 12.536C7.58643 13.1106 8.34818 13.5016 9.17722 13.6597C10.0063 13.8178 10.8654 13.7359 11.6461 13.4242C12.4267 13.1126 13.0939 12.5853 13.5633 11.9089C14.0327 11.2324 14.2832 10.4373 14.2832 9.62395C14.2843 9.08268 14.1742 8.54655 13.9592 8.04639C13.7442 7.54623 13.4286 7.0919 13.0306 6.70954C12.6325 6.32718 12.1598 6.02434 11.6397 5.81843C11.1195 5.61252 10.5622 5.5076 9.99984 5.50972ZM9.99984 12.2946C9.45099 12.2946 8.91448 12.138 8.45813 11.8445C8.00178 11.5511 7.6461 11.134 7.43607 10.646C7.22604 10.158 7.17108 9.62099 7.27816 9.10293C7.38523 8.58488 7.64953 8.10901 8.03762 7.73552C8.42571 7.36202 8.92016 7.10767 9.45846 7.00462C9.99676 6.90157 10.5547 6.95446 11.0618 7.1566C11.5688 7.35873 12.0022 7.70103 12.3072 8.14022C12.6121 8.5794 12.7748 9.09574 12.7748 9.62395C12.7748 9.97466 12.7031 10.3219 12.5636 10.646C12.4241 10.97 12.2197 11.2644 11.9621 11.5124C11.7044 11.7604 11.3985 11.9571 11.0618 12.0913C10.7251 12.2255 10.3643 12.2946 9.99984 12.2946Z" fill="#424242"/>
</svg>
