<svg width="24" height="24" viewBox="0 0 24 24" fill="none" xmlns="http://www.w3.org/2000/svg">
<g clip-path="url(#clip0_112_1563)">
<path d="M16 21H12V9H16V11C16.8526 9.91525 18.1456 9.26857 19.525 9.237C22.0056 9.25077 24.0072 11.2694 24 13.75V21H20V14.25C19.84 13.1326 18.8818 12.3036 17.753 12.306C17.2593 12.3216 16.7932 12.5378 16.4624 12.9046C16.1316 13.2715 15.9646 13.7573 16 14.25V21ZM10 21H6V9H10V21ZM8 7C6.89543 7 6 6.10457 6 5C6 3.89543 6.89543 3 8 3C9.10457 3 10 3.89543 10 5C10 5.53043 9.78929 6.03914 9.41421 6.41421C9.03914 6.78929 8.53043 7 8 7Z" fill="#424242"/>
</g>
<defs>
<clipPath id="clip0_112_1563">
<rect width="24" height="24" fill="white"/>
</clipPath>
</defs>
</svg>
