<svg width="29" height="29" viewBox="0 0 29 29" fill="none" xmlns="http://www.w3.org/2000/svg">
<path d="M15.7083 19.3332H16.7083H15.7083ZM15.7083 9.6665H14.7083V9.6665L15.7083 9.6665ZM20.8956 8.81208L21.6027 8.10498V8.10498L20.8956 8.81208ZM25.0211 12.9376L25.7282 12.2305L25.7282 12.2305L25.0211 12.9376ZM4.83333 7.0415H14.5V5.0415H4.83333V7.0415ZM14.7083 7.24984V19.3332H16.7083V7.24984H14.7083ZM4.625 19.3332V7.24984H2.625V19.3332H4.625ZM6.04167 19.5415H4.83333V21.5415H6.04167V19.5415ZM14.5 19.5415H10.875V21.5415H14.5V19.5415ZM2.625 19.3332C2.625 20.5528 3.6137 21.5415 4.83333 21.5415V19.5415C4.71827 19.5415 4.625 19.4482 4.625 19.3332H2.625ZM14.7083 19.3332C14.7083 19.4482 14.6151 19.5415 14.5 19.5415V21.5415C15.7196 21.5415 16.7083 20.5528 16.7083 19.3332H14.7083ZM14.5 7.0415C14.6151 7.0415 14.7083 7.13478 14.7083 7.24984H16.7083C16.7083 6.03021 15.7196 5.0415 14.5 5.0415V7.0415ZM4.83333 5.0415C3.6137 5.0415 2.625 6.03021 2.625 7.24984H4.625C4.625 7.13478 4.71827 7.0415 4.83333 7.0415V5.0415ZM16.7083 19.3332L16.7083 9.6665L14.7083 9.6665L14.7083 19.3332H16.7083ZM16.9167 9.45817H20.0412V7.45817H16.9167V9.45817ZM24.375 13.792V19.3332H26.375V13.792H24.375ZM20.1885 9.51919L24.314 13.6447L25.7282 12.2305L21.6027 8.10498L20.1885 9.51919ZM18.125 19.5415H16.9167V21.5415H18.125V19.5415ZM24.1667 19.5415H22.9583V21.5415H24.1667V19.5415ZM26.375 13.792C26.375 13.2063 26.1423 12.6446 25.7282 12.2305L24.314 13.6447C24.3531 13.6838 24.375 13.7368 24.375 13.792H26.375ZM20.0412 9.45817C20.0964 9.45817 20.1494 9.48012 20.1885 9.51919L21.6027 8.10498C21.1885 7.69083 20.6268 7.45817 20.0412 7.45817V9.45817ZM14.7083 19.3332C14.7083 20.5528 15.697 21.5415 16.9167 21.5415V19.5415C16.8016 19.5415 16.7083 19.4482 16.7083 19.3332H14.7083ZM24.375 19.3332C24.375 19.4482 24.2817 19.5415 24.1667 19.5415V21.5415C25.3863 21.5415 26.375 20.5528 26.375 19.3332H24.375ZM16.7083 9.6665C16.7083 9.55144 16.8016 9.45817 16.9167 9.45817V7.45817C15.697 7.45817 14.7083 8.44688 14.7083 9.6665H16.7083ZM9.875 20.5415C9.875 21.3239 9.24074 21.9582 8.45833 21.9582V23.9582C10.3453 23.9582 11.875 22.4285 11.875 20.5415H9.875ZM8.45833 21.9582C7.67593 21.9582 7.04167 21.3239 7.04167 20.5415H5.04167C5.04167 22.4285 6.57136 23.9582 8.45833 23.9582V21.9582ZM7.04167 20.5415C7.04167 19.7591 7.67593 19.1248 8.45833 19.1248V17.1248C6.57136 17.1248 5.04167 18.6545 5.04167 20.5415H7.04167ZM8.45833 19.1248C9.24074 19.1248 9.875 19.7591 9.875 20.5415H11.875C11.875 18.6545 10.3453 17.1248 8.45833 17.1248V19.1248ZM21.9583 20.5415C21.9583 21.3239 21.3241 21.9582 20.5417 21.9582V23.9582C22.4286 23.9582 23.9583 22.4285 23.9583 20.5415H21.9583ZM20.5417 21.9582C19.7593 21.9582 19.125 21.3239 19.125 20.5415H17.125C17.125 22.4285 18.6547 23.9582 20.5417 23.9582V21.9582ZM19.125 20.5415C19.125 19.7591 19.7593 19.1248 20.5417 19.1248V17.1248C18.6547 17.1248 17.125 18.6545 17.125 20.5415H19.125ZM20.5417 19.1248C21.3241 19.1248 21.9583 19.7591 21.9583 20.5415H23.9583C23.9583 18.6545 22.4286 17.1248 20.5417 17.1248V19.1248Z" fill="#111827"/>
</svg>
