<svg width="29" height="29" viewBox="0 0 29 29" fill="none" xmlns="http://www.w3.org/2000/svg">
<path d="M6.18792 21.5129C8.64281 20.1253 11.4789 19.3333 14.5 19.3333C17.5211 19.3333 20.3572 20.1253 22.8121 21.5129M18.125 12.0833C18.125 14.0854 16.502 15.7083 14.5 15.7083C12.498 15.7083 10.875 14.0854 10.875 12.0833C10.875 10.0813 12.498 8.45833 14.5 8.45833C16.502 8.45833 18.125 10.0813 18.125 12.0833ZM25.375 14.5C25.375 20.5061 20.5061 25.375 14.5 25.375C8.4939 25.375 3.625 20.5061 3.625 14.5C3.625 8.4939 8.4939 3.625 14.5 3.625C20.5061 3.625 25.375 8.4939 25.375 14.5Z" stroke="#111827" stroke-width="2" stroke-linecap="round" stroke-linejoin="round"/>
</svg>
